<?xml version="1.0" encoding="UTF-8" standalone="no"?>
<svg
   xmlns:dc="http://purl.org/dc/elements/1.1/"
   xmlns:cc="http://creativecommons.org/ns#"
   xmlns:rdf="http://www.w3.org/1999/02/22-rdf-syntax-ns#"
   xmlns:svg="http://www.w3.org/2000/svg"
   xmlns="http://www.w3.org/2000/svg"
   id="svg8"
   version="1.1"
   viewBox="0 0 100.18889 100.1889"
   height="100.1889mm"
   width="100.18889mm">
  <defs
     id="defs2" />
  <metadata
     id="metadata5">
    <rdf:RDF>
      <cc:Work
         rdf:about="">
        <dc:format>image/svg+xml</dc:format>
        <dc:type
           rdf:resource="http://purl.org/dc/dcmitype/StillImage" />
        <dc:title></dc:title>
      </cc:Work>
    </rdf:RDF>
  </metadata>
  <g
     style="display:inline"
     transform="translate(-55.360909,-49.979958)"
     id="layer2">
    <circle
       style="stroke-width:0.26458332"
       r="50.094444"
       cy="100.0744"
       cx="105.45535"
       id="path21" />
  </g>
  <g
     style="display:inline"
     id="layer3">
    <circle
       r="2.0079985"
       cy="32.460293"
       cx="67.728607"
       id="path26"
       style="fill:#ffffff;stroke:#ffffff;stroke-width:0.26458332" />
    <circle
       r="2.0079985"
       cy="32.436668"
       cx="77.579613"
       id="path26-2"
       style="display:inline;fill:#ffffff;stroke:#ffffff;stroke-width:0.26458332" />
    <path
       d="m 28.025076,38.490741 a 39.183964,39.183964 0 0 1 33.368792,-2.84646"
       id="path43"
       style="display:inline;fill:none;stroke:#ffffff;stroke-width:3;stroke-miterlimit:4;stroke-dasharray:none" />
    <path
       id="path4556"
       d="m 61.326635,19.831919 v 16.84245"
       style="fill:none;stroke:#ffffff;stroke-width:3;stroke-linecap:butt;stroke-linejoin:miter;stroke-miterlimit:4;stroke-dasharray:none;stroke-opacity:1" />
    <path
       id="path4556-9"
       d="M 27.42803,42.743959 V 80.778726"
       style="display:inline;fill:none;stroke:#ffffff;stroke-width:3;stroke-linecap:butt;stroke-linejoin:miter;stroke-miterlimit:4;stroke-dasharray:none;stroke-opacity:1" />
    <path
       id="path4556-9-6"
       d="M 34.636461,57.171134 V 80.711487"
       style="display:inline;fill:none;stroke:#ffffff;stroke-width:3;stroke-linecap:butt;stroke-linejoin:miter;stroke-miterlimit:4;stroke-dasharray:none;stroke-opacity:1" />
    <path
       id="path4556-9-6-2"
       d="M 59.891337,56.772292 V 80.853217"
       style="display:inline;fill:none;stroke:#ffffff;stroke-width:3;stroke-linecap:butt;stroke-linejoin:miter;stroke-miterlimit:4;stroke-dasharray:none;stroke-opacity:1" />
    <path
       id="path4556-9-6-8"
       d="M 67.107311,59.551854 V 80.85595"
       style="display:inline;fill:none;stroke:#ffffff;stroke-width:3;stroke-linecap:butt;stroke-linejoin:miter;stroke-miterlimit:4;stroke-dasharray:none;stroke-opacity:1" />
    <path
       id="path4556-9-6-6"
       d="M 72.595765,59.535306 V 80.789741"
       style="display:inline;fill:none;stroke:#ffffff;stroke-width:3;stroke-linecap:butt;stroke-linejoin:miter;stroke-miterlimit:4;stroke-dasharray:none;stroke-opacity:1" />
    <path
       id="path4556-9-6-64"
       d="M 79.811441,41.449627 V 80.709546"
       style="display:inline;fill:none;stroke:#ffffff;stroke-width:3;stroke-linecap:butt;stroke-linejoin:miter;stroke-miterlimit:4;stroke-dasharray:none;stroke-opacity:1" />
    <path
       id="path4556-7"
       d="M 83.882366,19.877789 V 35.992635"
       style="display:inline;fill:none;stroke:#ffffff;stroke-width:3;stroke-linecap:butt;stroke-linejoin:miter;stroke-miterlimit:4;stroke-dasharray:none;stroke-opacity:1" />
    <path
       d="m 34.635782,80.563774 a 3.6035745,3.5033481 0 0 1 -1.801787,3.033989 3.6035745,3.5033481 0 0 1 -3.603575,0 3.6035745,3.5033481 0 0 1 -1.801787,-3.033989"
       id="path4638"
       style="fill:none;stroke:#ffffff;stroke-width:3;stroke-miterlimit:4;stroke-dasharray:none" />
    <path
       d="m 67.0897,80.645088 a 3.6035745,3.5033481 0 0 1 -1.801787,3.033989 3.6035745,3.5033481 0 0 1 -3.603574,0 3.6035745,3.5033481 0 0 1 -1.801788,-3.033989"
       id="path4638-9"
       style="display:inline;fill:none;stroke:#ffffff;stroke-width:3;stroke-miterlimit:4;stroke-dasharray:none" />
    <path
       d="m 79.807127,80.568077 a 3.6035745,3.5033481 0 0 1 -1.801788,3.033989 3.6035745,3.5033481 0 0 1 -3.603574,-10e-7 3.6035745,3.5033481 0 0 1 -1.801787,-3.033988"
       id="path4638-4"
       style="display:inline;fill:none;stroke:#ffffff;stroke-width:3;stroke-miterlimit:4;stroke-dasharray:none" />
    <path
       transform="scale(-1)"
       d="m -67.116421,-59.819195 a 2.7350118,2.6589429 0 0 1 -1.367506,2.302712 2.7350118,2.6589429 0 0 1 -2.735012,0 2.7350118,2.6589429 0 0 1 -1.367506,-2.302712"
       id="path4638-9-3"
       style="display:inline;fill:none;stroke:#ffffff;stroke-width:3;stroke-miterlimit:4;stroke-dasharray:none" />
    <path
       transform="rotate(-150)"
       d="m -41.194907,3.7311885 a 2.1302955,2.0710456 0 0 1 -1.065148,1.7935782 2.1302955,2.0710456 0 0 1 -2.130296,-10e-8 2.1302955,2.0710456 0 0 1 -1.065147,-1.7935782"
       id="path4638-9-3-0"
       style="display:inline;fill:none;stroke:#ffffff;stroke-width:3;stroke-miterlimit:4;stroke-dasharray:none" />
    <path
       d="m 89.5179,108.23374 a 19.113749,18.824148 0 0 1 26.22822,-0.36797"
       id="path4691"
       style="display:inline;fill:none;stroke:#ffffff;stroke-width:3;stroke-miterlimit:4;stroke-dasharray:none"
       transform="translate(-55.360909,-49.979958)" />
    <path
       id="path4697"
       d="m 61.759387,20.886459 5.633425,5.633422"
       style="display:inline;fill:none;stroke:#ffffff;stroke-width:3;stroke-linecap:butt;stroke-linejoin:miter;stroke-miterlimit:4;stroke-dasharray:none;stroke-opacity:1" />
    <path
       d="m 123.15837,76.249679 a 8.0828238,8.0828238 0 0 1 9.74104,0.04651"
       id="path4695"
       style="display:inline;fill:none;stroke:#ffffff;stroke-width:3;stroke-miterlimit:4;stroke-dasharray:none"
       transform="translate(-55.360909,-49.979958)" />
    <path
       id="path4697-0"
       d="m 83.471946,20.919632 -5.6089,5.608899"
       style="display:inline;fill:none;stroke:#ffffff;stroke-width:3;stroke-linecap:butt;stroke-linejoin:miter;stroke-miterlimit:4;stroke-dasharray:none;stroke-opacity:1" />
    <path
       id="path4720"
       d="m 121.63041,76.012996 h 2.42712"
       style="display:inline;fill:none;stroke:#ffffff;stroke-width:3;stroke-linecap:butt;stroke-linejoin:miter;stroke-miterlimit:4;stroke-dasharray:none;stroke-opacity:1"
       transform="translate(-55.360909,-49.979958)" />
    <path
       id="path4720-1"
       d="m 131.96725,76.001316 h 2.42712"
       style="display:inline;fill:none;stroke:#ffffff;stroke-width:3;stroke-linecap:butt;stroke-linejoin:miter;stroke-miterlimit:4;stroke-dasharray:none;stroke-opacity:1"
       transform="translate(-55.360909,-49.979958)" />
    <path
       d="M 83.945922,35.573709 A 11.64627,11.64627 0 0 1 72.756314,44.435867 11.64627,11.64627 0 0 1 61.387744,35.804483"
       id="path4743"
       style="fill:none;stroke:#ffffff;stroke-width:3;stroke-miterlimit:4;stroke-dasharray:none" />
    <path
       d="m 26.656771,44.24185 a 10.529509,10.529509 0 0 1 -9.118822,-5.264754 10.529509,10.529509 0 0 1 0,-10.529509 10.529509,10.529509 0 0 1 9.118822,-5.264754"
       id="path4745"
       style="fill:none;stroke:#ffffff;stroke-width:3;stroke-miterlimit:4;stroke-dasharray:none" />
    <path
       d="M 28.189434,38.413246 A 5.6367321,5.6367321 0 0 1 22.012647,37.256388 5.6367321,5.6367321 0 0 1 20.74526,31.101329 5.6367321,5.6367321 0 0 1 25.962536,27.598322"
       id="path4745-4"
       style="display:inline;fill:none;stroke:#ffffff;stroke-width:3;stroke-miterlimit:4;stroke-dasharray:none" />
    <path
       d="M 96.715538,69.299049 A 18.23946,18.23946 0 0 1 81.209549,77.582643"
       id="path4764-4"
       style="display:inline;fill:none;stroke:#ffffff;stroke-width:3;stroke-miterlimit:4;stroke-dasharray:none"
       transform="translate(-55.360909,-49.979958)" />
    <path
       d="M 92.972853,67.225531 A 13.069349,13.069349 0 0 1 81.862151,73.161078"
       id="path4764"
       style="display:inline;fill:none;stroke:#ffffff;stroke-width:3;stroke-miterlimit:4;stroke-dasharray:none"
       transform="translate(-55.360909,-49.979958)" />
  </g>
</svg>
