<?xml version="1.0" encoding="UTF-8"?>
<!DOCTYPE svg PUBLIC "-//W3C//DTD SVG 1.1//EN" "http://www.w3.org/Graphics/SVG/1.1/DTD/svg11.dtd">

<svg xmlns="http://www.w3.org/2000/svg"
     xmlns:xlink="http://www.w3.org/1999/xlink"
     xmlns:ev="http://www.w3.org/2001/xml-events"
     version="1.1" baseProfile="full"
     width="100" height="100"
>
<!-- created by Manfred Steiner -->

  <rect style="fill:#c9730e; fill-opacity:1" width="96" height="96" x="2" y="2" rx="20" ry="20"/>
  <g style="fill:#ffffff; fill-opacity:1; stroke:none" transform="translate(-115,-62) scale(3.5)" >
    <path 
      d="m 54.526237,38.674103 0,-8.355469 c -1.8e-5,-1.023428 -0.218768,-1.789052 -0.65625,-2.296875 -0.437517,-0.515614 -1.117204,-0.773426 -2.039062,-0.773437 -1.210952,1.1e-5 -2.105482,0.347667 -2.683594,1.042968 -0.578137,0.695322 -0.867199,1.765634 -0.867187,3.210938 l 0,7.171875 -1.945313,0 0,-8.355469 c -1e-5,-1.023428 -0.21876,-1.789052 -0.65625,-2.296875 -0.437509,-0.515614 -1.121102,-0.773426 -2.050781,-0.773437 -1.218756,1.1e-5 -2.113287,0.367198 -2.683594,1.101562 -0.562504,0.726572 -0.843754,1.921883 -0.84375,3.585938 l 0,6.738281 -1.945312,0 0,-12.84375 1.582031,0 0.316406,1.757812 0.09375,0 c 0.367183,-0.624988 0.882808,-1.113269 1.546875,-1.464843 0.671869,-0.35155 1.421868,-0.527331 2.25,-0.527344 2.007803,1.3e-5 3.320302,0.726575 3.9375,2.179687 l 0.09375,0 c 0.3828,-0.671863 0.937487,-1.203113 1.664063,-1.59375 0.726548,-0.390612 1.554672,-0.585924 2.484375,-0.585937 1.453107,1.3e-5 2.539044,0.375012 3.257812,1.125 0.726543,0.742198 1.089824,1.933604 1.089844,3.574219 l 0,8.378906 -1.945313,0"
      style="line-height:125%"
    />
  </g>
  
</svg>

